<svg id="visual" viewBox="0 0 450 900" width="450" height="900" xmlns="http://www.w3.org/2000/svg" xmlns:xlink="http://www.w3.org/1999/xlink" version="1.1"><path d="M0 37L450 28L450 0L0 0Z" fill="#038373"></path><path d="M0 55L450 73L450 26L0 35Z" fill="#008977"></path><path d="M0 73L450 100L450 71L0 53Z" fill="#00907a"></path><path d="M0 145L450 190L450 98L0 71Z" fill="#00977d"></path><path d="M0 208L450 235L450 188L0 143Z" fill="#009d80"></path><path d="M0 271L450 280L450 233L0 206Z" fill="#00a483"></path><path d="M0 307L450 343L450 278L0 269Z" fill="#00aa85"></path><path d="M0 469L450 442L450 341L0 305Z" fill="#00b187"></path><path d="M0 559L450 541L450 440L0 467Z" fill="#00b889"></path><path d="M0 802L450 766L450 539L0 557Z" fill="#00bf8b"></path><path d="M0 829L450 793L450 764L0 800Z" fill="#00c58d"></path><path d="M0 901L450 901L450 791L0 827Z" fill="#00cc8e"></path></svg>